<?xml version="1.0" standalone="no"?> 
<!DOCTYPE svg PUBLIC "-//W3C//DTD SVG 1.1//EN" "http://www.w3.org/Graphics/SVG/1.1/DTD/svg11.dtd" >
<svg xmlns="http://www.w3.org/2000/svg">
<defs>
  <font id="icons" horiz-adv-x="612">
    <font-face font-family="icons"
      units-per-em="792" ascent="792"
      descent="0" />
    <missing-glyph horiz-adv-x="0" />
    <glyph glyph-name="alert-battery-full"
      unicode="&#xE001;"
      horiz-adv-x="792" d=" M667.92 194.0400000000001H52.8C35.64 194.0400000000001 21.12 208.5600000000001 21.12 225.7200000000001V590.04C22.44 607.2 35.64 620.4 52.8 620.4H667.92C685.0799999999999 620.4 699.5999999999999 605.88 699.5999999999999 588.72V224.4C699.5999999999999 207.2400000000001 685.0799999999999 194.0400000000001 667.92 194.0400000000001L667.92 194.0400000000001zM84.48 256.0800000000001H636.2399999999999V558.36H84.48V256.0800000000001L84.48 256.0800000000001z M726 294.36C708.84 294.36 694.3199999999999 308.88 694.3199999999999 326.04V489.72C694.3199999999999 506.8800000000001 708.84 521.4000000000001 726 521.4000000000001C743.16 521.4000000000001 757.68 506.88 757.68 489.72V326.0400000000001C756.3599999999999 307.56 743.16 294.36 726 294.36L726 294.36z M172.92 294.36C155.76 294.36 141.24 308.88 141.24 326.04V489.72C141.24 506.8800000000001 155.76 521.4000000000001 172.92 521.4000000000001S204.6 506.88 204.6 489.72V326.0400000000001C204.6 307.56 190.08 294.36 172.92 294.36L172.92 294.36z M298.32 294.36C281.16 294.36 266.6400000000001 308.88 266.6400000000001 326.04V489.72C266.6400000000001 506.8800000000001 281.1600000000001 521.4000000000001 298.32 521.4000000000001C315.48 521.4000000000001 330 506.88 330 489.72V326.0400000000001C328.68 307.56 315.48 294.36 298.32 294.36L298.32 294.36z M423.72 294.36C406.56 294.36 392.04 308.88 392.04 326.04V489.72C392.04 506.8800000000001 406.5600000000001 521.4000000000001 423.72 521.4000000000001S455.4 506.88 455.4 489.72V326.0400000000001C454.08 307.56 440.88 294.36 423.72 294.36L423.72 294.36z M547.8 294.36C530.64 294.36 516.12 308.88 516.12 326.04V489.72C516.12 506.8800000000001 530.64 521.4000000000001 547.8 521.4000000000001S579.4799999999999 506.88 579.4799999999999 489.72V326.0400000000001C579.4799999999999 307.56 564.9599999999999 294.36 547.8 294.36L547.8 294.36z" />
    <glyph glyph-name="alert-battery-low"
      unicode="&#xE002;"
      horiz-adv-x="792" d=" M667.92 194.0400000000001H52.8C35.64 194.0400000000001 21.12 208.5600000000001 21.12 225.7200000000001V590.04C22.44 607.2 35.64 620.4 52.8 620.4H667.92C685.0799999999999 620.4 699.5999999999999 605.88 699.5999999999999 588.72V224.4C699.5999999999999 207.2400000000001 685.0799999999999 194.0400000000001 667.92 194.0400000000001L667.92 194.0400000000001zM84.48 256.0800000000001H636.2399999999999V558.36H84.48V256.0800000000001L84.48 256.0800000000001z M726 294.36C708.84 294.36 694.3199999999999 308.88 694.3199999999999 326.04V489.72C694.3199999999999 506.8800000000001 708.84 521.4000000000001 726 521.4000000000001C743.16 521.4000000000001 757.68 506.88 757.68 489.72V326.0400000000001C756.3599999999999 307.56 743.16 294.36 726 294.36L726 294.36z M172.92 294.36C155.76 294.36 141.24 308.88 141.24 326.04V489.72C141.24 506.8800000000001 155.76 521.4000000000001 172.92 521.4000000000001S204.6 506.88 204.6 489.72V326.0400000000001C204.6 307.56 190.08 294.36 172.92 294.36L172.92 294.36z M298.32 294.36C281.16 294.36 266.6400000000001 308.88 266.6400000000001 326.04V489.72C266.6400000000001 506.8800000000001 281.1600000000001 521.4000000000001 298.32 521.4000000000001C315.48 521.4000000000001 330 506.88 330 489.72V326.0400000000001C328.68 307.56 315.48 294.36 298.32 294.36L298.32 294.36z" />
    <glyph glyph-name="alert-cmd"
      unicode="&#xE003;"
      horiz-adv-x="792" d=" M396 652.08C262.68 652.08 154.44 543.84 154.44 410.5200000000001S262.68 167.6400000000001 396 167.6400000000001C529.3199999999999 167.6400000000001 637.56 275.8800000000001 637.56 409.2000000000001S529.3199999999999 652.08 396 652.08zM396 231C297 231 216.48 311.5200000000001 216.48 410.5200000000001S297 590.04 396 590.04S575.52 509.52 575.52 410.5200000000001S495 231 396 231z" />
    <glyph glyph-name="alert-fuel"
      unicode="&#xE004;"
      horiz-adv-x="792" d=" M761.64 108.2400000000001L665.28 646.8C665.28 646.8 665.28 691.6800000000001 592.68 687.72V638.88H611.16L707.5199999999999 106.9200000000001C707.5199999999999 83.1600000000001 687.7199999999999 64.6800000000001 661.3199999999999 64.6800000000001C636.2399999999999 64.6800000000001 615.1199999999999 84.48 615.1199999999999 106.9200000000001L615.1199999999999 294.36C615.1199999999999 345.84 624.3599999999999 414.48 518.76 414.48V430.32H571.56V773.52H13.2V429H64.68V18.4799999999999H517.4399999999999V363C554.3999999999999 365.6400000000001 559.68 359.0400000000001 559.68 326.0400000000001V106.9200000000001C559.68 55.4400000000001 604.56 13.2 661.3199999999999 13.2C716.7599999999999 13.2 761.64 55.4400000000001 761.64 108.2400000000001M105.6 719.4H479.1599999999999C493.6799999999999 719.4 505.5599999999999 708.84 505.5599999999999 694.32V514.8C505.5599999999999 500.28 495 489.72 479.1599999999999 489.72H105.6C91.08 489.72 79.2 500.28 79.2 514.8V694.32C79.2 708.84 91.08 719.4 105.6 719.4" />
    <glyph glyph-name="alert-lockdown"
      unicode="&#xE005;"
      horiz-adv-x="792" d=" M677.16 13.2H110.88C76.56 13.2 47.52 40.9200000000001 47.52 76.56V411.8400000000001C47.52 446.1600000000001 75.24 475.2 110.88 475.2H677.16C711.4799999999999 475.2 740.5199999999999 447.48 740.5199999999999 411.8400000000001V76.56C740.52 42.2400000000001 711.4799999999999 13.2 677.16 13.2L677.16 13.2zM110.88 411.8400000000001V76.56H677.16V411.8400000000001H110.88L110.88 411.8400000000001z M595.3199999999999 419.7600000000001C578.1600000000001 419.7600000000001 563.64 434.2800000000001 563.64 451.44V538.56C563.64 632.28 487.08 708.8399999999999 393.36 708.8399999999999C299.6400000000001 708.8399999999999 223.0800000000001 632.28 223.0800000000001 538.56V451.4399999999999C223.0800000000001 434.28 208.5600000000001 419.76 191.4000000000001 419.76C174.2400000000001 419.76 159.7200000000001 434.28 159.7200000000001 451.4399999999999V538.56C159.7200000000001 666.5999999999999 264.0000000000001 772.1999999999999 393.36 772.1999999999999C521.4 772.1999999999999 627 667.92 627 538.56V451.4399999999999C627 434.28 612.4799999999999 419.7600000000001 595.3199999999999 419.7600000000001L595.3199999999999 419.7600000000001z M393.36 351.1200000000001C357.7200000000001 351.1200000000001 327.36 322.08 327.36 285.1200000000001C327.36 260.0400000000001 340.56 238.9200000000001 361.68 228.3600000000002V154.4400000000001H425.04V228.3600000000002C444.8400000000001 238.9200000000001 459.36 261.3600000000002 459.36 285.1200000000001C459.36 322.08 430.32 351.1200000000001 393.36 351.1200000000001L393.36 351.1200000000001z" />
    <glyph glyph-name="alert-standby"
      unicode="&#xE006;"
      horiz-adv-x="792" d=" M389.4 475.2C372.24 475.2 357.7200000000001 489.72 357.7200000000001 506.88V740.52C357.7200000000001 757.6800000000001 372.24 772.2 389.4 772.2C406.56 772.2 421.08 757.68 421.08 740.52V506.8800000000001C421.08 489.72 406.56 475.2 389.4 475.2L389.4 475.2z M389.4 15.84C203.28 15.84 52.8 167.6400000000001 52.8 352.4400000000001C52.8 495.0000000000001 143.88 623.0400000000001 278.52 670.5600000000001C295.68 675.84 314.16 667.9200000000001 319.44 650.7600000000001C324.7200000000001 633.6 316.8 615.1200000000001 299.6400000000001 609.84C190.08 572.88 116.16 468.6 116.16 352.4400000000001C116.16 201.96 238.92 79.2000000000001 389.4 79.2000000000001C539.88 79.2000000000001 662.64 201.96 662.64 352.4400000000001C662.64 468.6000000000001 588.72 571.5600000000001 479.16 609.84C462.0000000000001 615.1200000000001 454.08 633.6 459.36 650.76C464.64 667.9200000000001 483.12 675.84 500.28 670.5600000000001C634.92 624.36 726 496.3200000000001 726 352.4400000000001C726 167.6400000000001 575.52 15.84 389.4 15.84L389.4 15.84z" />
    <glyph glyph-name="alert"
      unicode="&#xE007;"
      horiz-adv-x="792" d=" M764.28 132L761.6399999999999 138.6C733.9199999999998 192.72 724.68 209.88 711.4799999999999 393.36C696.9599999999999 567.6 583.44 691.6800000000001 430.32 704.88V745.8C430.32 764.28 415.8 778.8 397.32 778.8C378.8400000000001 778.8 364.32 764.28 364.32 745.8V704.88C212.52 691.6800000000001 99 567.6 85.8 393.36C71.28 208.56 63.36 192.72 34.32 138.6L31.68 132C21.12 125.4000000000001 14.52 112.2000000000001 17.16 97.6800000000001C21.12 80.5200000000001 38.28 68.64 55.44 72.6C56.76 72.6 58.08 72.6 58.08 72.6C59.4 72.6 60.72 72.6 62.04 73.9200000000001C141.24 89.7600000000001 220.44 100.3200000000001 299.64 104.28C300.96 51.48 344.5199999999999 10.5600000000001 397.32 10.5600000000001S492.36 52.8000000000001 495 104.28C574.1999999999999 100.3200000000001 653.4 89.76 732.5999999999999 73.9200000000001C733.92 73.9200000000001 735.24 73.9200000000001 736.56 72.6C737.88 72.6 739.1999999999999 72.6 739.1999999999999 72.6C741.84 72.6 743.16 71.28 745.8 71.28C760.3199999999999 71.28 774.84 81.84 777.4799999999999 97.6800000000001C781.4399999999999 110.88 774.84 125.4000000000001 764.28 132zM397.32 76.56C380.16 76.56 365.6400000000001 89.76 365.6400000000001 108.24C386.7600000000001 108.24 409.2000000000001 108.24 430.32 108.24C429 89.76 415.8 76.56 397.32 76.56zM112.2 149.16C130.68 194.04 138.6 241.56 150.48 388.08C162.36 538.56 258.7200000000001 640.2 390.72 640.2H405.24C405.24 640.2 405.24 640.2 405.24 640.2C537.24 640.2 633.5999999999999 538.5600000000001 645.48 388.08C656.04 241.56 665.2800000000001 194.0400000000001 683.76 149.16C493.6799999999999 180.84 302.28 180.84 112.2 149.16z" />
    <glyph glyph-name="arrow-down"
      unicode="&#xE008;"
      horiz-adv-x="792" d=" M716.7599999999999 498.96L418.44 200.6400000000001C415.8 198 411.84 195.3600000000001 407.88 194.0400000000001C398.64 190.0800000000002 388.08 191.4 378.84 198C377.5199999999999 199.3200000000001 374.88 199.3200000000001 373.56 200.6400000000001L373.56 200.6400000000001L327.36 246.8400000000001C327.36 246.8400000000001 327.36 246.8400000000001 327.36 246.8400000000001L76.56 498.96C64.68 510.84 64.68 530.64 76.56 542.52L122.76 588.72C134.64 600.6 154.44 600.6 166.32 588.72L396 357.7200000000001L627 588.72C638.88 600.6 658.68 600.6 670.56 588.72L716.7599999999999 542.52C728.64 530.64 728.64 510.84 716.7599999999999 498.96z" />
    <glyph glyph-name="arrow-left"
      unicode="&#xE009;"
      horiz-adv-x="792" d=" M543.84 88.4400000000001C557.04 88.4400000000001 571.5600000000001 93.72 580.8 104.2800000000001C601.92 125.4000000000001 601.92 158.4000000000001 580.8 179.5200000000001L361.68 398.64L580.8 617.76C601.92 638.88 601.92 671.88 580.8 693C559.68 714.12 526.68 714.12 505.5599999999999 693L249.48 435.6C238.92 425.04 233.64 411.8400000000001 233.64 398.64C233.64 384.12 238.92 370.92 249.48 361.68L506.8799999999999 104.28C517.44 93.72 530.64 88.4400000000001 543.84 88.4400000000001L543.84 88.4400000000001z" />
    <glyph glyph-name="arrow-right"
      unicode="&#xE00A;"
      horiz-adv-x="792" d=" M287.76 88.4400000000001C274.56 88.4400000000001 260.04 93.72 250.8 104.2800000000001C229.68 125.4000000000001 229.68 158.4000000000001 250.8 179.5200000000001L469.92 398.6400000000002L249.48 617.76C228.36 638.88 228.36 671.88 249.48 693C270.6 714.12 303.6 714.12 324.72 693L582.12 435.6C592.68 425.04 597.96 411.8400000000001 597.96 398.64C597.96 384.12 592.6800000000001 370.92 582.12 361.68L324.7200000000001 104.28C314.16 93.72 300.96 88.4400000000001 287.76 88.4400000000001L287.76 88.4400000000001z" />
    <glyph glyph-name="check"
      unicode="&#xE00B;"
      horiz-adv-x="792" d=" M39.6 319.4400000000001C29.04 330 29.04 351.1200000000001 39.6 361.6800000000001L113.52 438.2400000000001C124.08 448.8000000000002 142.56 448.8000000000002 155.76 438.2400000000001L274.56 316.8000000000002C285.12 306.2400000000002 303.6 306.2400000000002 316.8 316.8000000000002L644.16 649.44C654.7199999999999 660 673.1999999999999 660 686.4 649.44L760.3199999999999 575.52C770.88 564.96 770.88 543.84 760.3199999999999 533.28L361.68 126.72C351.12 116.1600000000001 327.36 105.6 311.52 105.6H277.2C261.36 105.6 237.6 116.16 227.04 126.72L39.6 319.4400000000001z" />
    <glyph glyph-name="comments"
      unicode="&#xE00C;"
      horiz-adv-x="792" d=" M146.52 159.72C138.6 159.72 132 159.72 124.08 161.0400000000001C110.88 162.3600000000001 100.32 171.6 97.68 184.8000000000001C95.04 198 101.64 211.2000000000001 113.52 216.48C134.64 227.04 151.8 240.24 165 256.0800000000001C77.88 299.6400000000001 22.44 378.8400000000001 22.44 463.3200000000001C22.44 597.96 158.4 707.52 324.7200000000001 707.52C491.04 707.52 627 597.96 627 463.3200000000001S491.04 219.12 324.7200000000001 219.12C320.76 219.12 318.12 219.12 314.16 219.12C271.92 180.84 212.52 159.72 146.52 159.72L146.52 159.72zM324.7200000000001 649.44C190.08 649.44 81.84 566.28 81.84 463.3200000000001C81.84 393.36 135.96 327.36 219.12 297C227.04 294.36 233.64 287.76 236.2800000000001 279.8400000000001C238.92 271.9200000000001 238.92 264 234.96 256.0800000000002L233.64 253.4400000000001C232.32 249.4800000000002 231 246.8400000000001 228.36 242.8800000000001C225.72 238.9200000000002 223.08 233.6400000000001 219.12 229.6800000000001C244.2 238.9200000000002 265.32 252.1200000000001 282.48 269.2800000000001C289.0800000000001 275.8800000000001 297.0000000000001 278.5200000000001 304.92 278.5200000000001C311.52 278.5200000000001 318.12 277.2000000000002 324.7200000000001 277.2000000000002C458.04 277.2000000000001 567.6 360.36 567.6 463.3200000000001S458.04 649.44 324.7200000000001 649.44L324.7200000000001 649.44z M663.9599999999999 69.96C625.68 69.96 590.04 80.52 559.68 100.3199999999999C558.3599999999999 100.3199999999999 555.72 99 554.4 99C439.56 77.8799999999999 328.68 130.68 289.08 221.76C282.48 236.28 289.08 253.44 304.92 260.04C319.44 266.64 336.5999999999999 260.04 343.2 244.2C372.2399999999999 176.8799999999999 456.7199999999999 139.92 545.16 155.7599999999999C550.4399999999999 157.0799999999999 555.7199999999999 158.4 559.68 159.7199999999999C568.92 162.3599999999999 578.16 159.7199999999999 584.7599999999999 154.44C595.3199999999999 145.1999999999998 608.5199999999999 138.5999999999998 621.7199999999999 134.6399999999999C621.7199999999999 134.6399999999999 621.7199999999999 134.6399999999999 621.7199999999999 134.6399999999999C619.0799999999998 137.28 617.7599999999999 139.9199999999999 616.4399999999999 142.56C612.4799999999999 149.1599999999999 609.8399999999999 158.4 611.16 166.3199999999998C612.4799999999999 174.2399999999999 616.4399999999999 182.1599999999999 623.04 186.1199999999999C683.7599999999999 223.0799999999998 716.7599999999999 285.1199999999999 707.5199999999999 343.1999999999998C699.5999999999999 390.7199999999999 666.5999999999999 430.3199999999998 615.1199999999999 451.4399999999998C600.5999999999999 458.0399999999998 592.6799999999998 475.1999999999998 599.2799999999999 489.7199999999998C605.8799999999999 504.2399999999998 623.0399999999998 512.1599999999999 637.5599999999998 505.5599999999998C707.5199999999998 477.8399999999997 755.0399999999998 419.7599999999998 765.5999999999998 352.4399999999998C777.4799999999998 281.1599999999998 744.4799999999998 205.9199999999997 682.4399999999998 155.7599999999998C694.3199999999998 145.1999999999998 707.5199999999998 138.5999999999998 723.3599999999998 133.3199999999998C735.2399999999998 129.3599999999998 744.4799999999998 117.4799999999998 744.4799999999998 104.2799999999998C744.4799999999998 91.0799999999997 735.2399999999998 80.5199999999998 722.0399999999998 76.5599999999997C702.24 72.6 682.44 69.96 663.9599999999999 69.96L663.9599999999999 69.96z" />
    <glyph glyph-name="datepicker"
      unicode="&#xE00D;"
      horiz-adv-x="792" d=" M735.24 670.5600000000001H641.52V691.6800000000001C641.52 710.16 627 724.6800000000001 608.52 724.6800000000001S575.52 710.16 575.52 691.6800000000001V669.24H221.76V691.6800000000001C221.76 710.16 207.24 724.6800000000001 188.76 724.6800000000001S155.76 710.16 155.76 691.6800000000001V669.24H59.4C40.92 670.5600000000001 26.4 654.72 26.4 637.5600000000001V99C26.4 80.5200000000001 40.92 66 59.4 66H736.56C755.0399999999998 66 769.56 80.5200000000001 769.56 99V637.5600000000001C768.24 654.72 753.72 670.5600000000001 735.24 670.5600000000001zM92.4 604.5600000000001H157.08V582.12C157.08 563.6400000000001 171.6 549.12 190.08 549.12S223.08 563.6400000000001 223.08 582.12V604.5600000000001H578.16V582.12C578.16 563.6400000000001 592.68 549.12 611.16 549.12S644.16 563.6400000000001 644.16 582.12V604.5600000000001H704.88V475.2H92.4V604.5600000000001zM702.24 132H92.4V442.2000000000001H703.56V132z M212.52 374.88L149.16 374.88L149.16 311.5200000000001L212.52 311.5200000000001L212.52 374.88z M323.4 374.88L260.04 374.88L260.04 311.5200000000001L323.4 311.5200000000001L323.4 374.88z M434.28 374.88L370.92 374.88L370.92 311.5200000000001L434.28 311.5200000000001L434.28 374.88z M545.16 374.88L480.48 374.88L480.48 311.5200000000001L545.16 311.5200000000001L545.16 374.88z M656.04 374.88L591.3599999999999 374.88L591.3599999999999 311.5200000000001L656.04 311.5200000000001L656.04 374.88z M212.52 273.24L149.16 273.24L149.16 208.56L212.52 208.56L212.52 273.24z M323.4 273.24L260.04 273.24L260.04 208.56L323.4 208.56L323.4 273.24z M434.28 273.24L370.92 273.24L370.92 208.56L434.28 208.56L434.28 273.24z M545.16 273.24L480.48 273.24L480.48 208.56L545.16 208.56L545.16 273.24z M656.04 273.24L591.3599999999999 273.24L591.3599999999999 208.56L656.04 208.56L656.04 273.24z" />
    <glyph glyph-name="email"
      unicode="&#xE00E;"
      horiz-adv-x="792" d=" M704.88 678.48H85.8C40.92 678.48 5.28 642.84 5.28 597.96V192.72C5.28 147.84 40.92 112.2000000000001 85.8 112.2000000000001H704.88C749.7599999999999 112.2000000000001 785.4 147.84 785.4 192.72V599.28C785.4 642.84 749.7599999999999 678.48 704.88 678.48zM704.88 180.84H85.8C81.84 180.84 79.2 182.1600000000001 76.56 184.8000000000001L287.76 373.5600000000001L384.12 287.76C386.76 285.12 392.04 283.8 396 283.8C399.96 283.8 403.92 285.1200000000001 406.56 287.76L502.92 373.56L714.12 184.8000000000001C711.4799999999999 182.16 708.84 180.84 704.88 180.84zM716.7599999999999 227.0400000000001L528 396L716.7599999999999 564.96V227.0400000000001zM85.8 611.1600000000001H704.88C708.8399999999999 611.1600000000001 711.4799999999999 609.84 714.12 607.2L394.68 323.4000000000001L76.56 607.2C79.2 609.84 81.84 611.1600000000001 85.8 611.1600000000001zM72.6 564.96L262.68 396L72.6 227.0400000000001V564.96z" />
    <glyph glyph-name="excel"
      unicode="&#xE00F;"
      horiz-adv-x="792" d=" M683.7599999999999 789.36H118.8C99 789.36 84.48 773.52 84.48 755.04C84.48 736.56 100.32 720.72 118.8 720.72H648.12V270.6H476.52C467.28 270.6 459.36 262.6800000000001 459.36 253.4400000000001V80.5200000000001H154.44V252.12C154.44 271.9200000000001 138.6 286.4400000000001 120.12 286.4400000000001S85.8 270.6 85.8 252.12V44.8800000000001C85.8 25.0800000000002 101.64 10.5600000000001 120.12 10.5600000000001H476.52C485.76 10.5600000000001 495 14.5200000000001 500.28 21.12L707.5199999999999 228.36C714.1199999999999 234.9600000000001 718.0799999999998 244.2000000000001 718.0799999999998 252.12V753.7199999999999C718.0799999999999 773.52 702.24 789.36 683.7599999999999 789.36zM493.6799999999999 112.2000000000001V236.28H617.7599999999999L493.6799999999999 112.2000000000001z M157.08 509.52L113.52 662.64H158.4L184.8 563.64L211.2 662.64H254.76L209.88 508.2L258.7200000000001 339.2400000000001H209.88L183.48 446.1600000000001L157.08 339.2400000000001H109.56L157.08 509.52z M287.76 662.64H332.64V382.8H396V340.56H287.76V662.64z M423.72 417.1200000000001C423.72 422.4000000000001 423.72 426.36 423.72 434.2800000000001L468.6 435.6000000000001V422.4000000000001C468.6 389.4000000000001 473.8799999999999 378.8400000000001 492.36 378.8400000000001C505.5599999999999 378.8400000000001 512.16 389.4000000000001 512.16 410.52S504.2399999999999 443.52 484.4399999999999 473.88L462 505.56C434.28 546.48 425.04 568.9200000000001 425.04 597.96C425.04 640.2 450.12 667.9200000000001 491.04 667.9200000000001C521.4 667.9200000000001 543.84 649.44 549.12 620.4000000000001C551.76 608.52 551.76 605.8800000000001 551.76 580.8000000000001L508.2 576.84C508.2 592.6800000000001 508.2 599.28 506.8800000000001 605.8800000000001C505.56 619.08 497.64 625.6800000000001 488.4000000000001 625.6800000000001C476.5200000000001 625.6800000000001 469.9200000000001 615.12 469.9200000000001 595.32C469.9200000000001 575.52 471.2400000000001 570.24 501.6000000000001 526.6800000000001L524.0400000000001 493.6800000000001C545.1600000000001 463.3200000000001 557.0400000000001 430.3200000000001 557.0400000000001 402.6C557.0400000000001 359.0400000000001 533.2800000000001 335.2800000000001 491.0400000000001 335.2800000000001C467.2800000000001 335.2800000000001 450.1200000000001 343.2000000000001 436.9200000000001 360.36C426.36 374.88 423.72 388.08 423.72 417.1200000000001z" />
    <glyph glyph-name="filter"
      unicode="&#xE010;"
      horiz-adv-x="792" d=" M348.48 285.1200000000001L348.48 128.0400000000001L348.48 129.36L348.48 285.1200000000001z M415.8 285.1200000000001L415.8 126.72L415.8 125.4000000000001L415.8 285.1200000000001z M627 752.4V498.96C627 489.72 623.04 480.48 616.44 473.8800000000001L415.8 285.1200000000001L415.8 285.1200000000001V126.72L415.8 126.72L491.04 201.96C504.24 215.1600000000001 526.6800000000001 215.1600000000001 539.88 201.96C553.08 188.7600000000001 553.08 167.6400000000001 539.88 153.12L407.8800000000001 21.12C394.6800000000001 7.9200000000001 373.5600000000001 7.9200000000001 359.0400000000001 21.12L227.0400000000001 153.12C220.4400000000001 159.72 216.4800000000001 168.96 216.4800000000001 176.88C216.4800000000001 186.12 219.1200000000001 194.04 227.0400000000001 200.64C240.2400000000001 213.8399999999999 261.3600000000001 213.8399999999999 275.8800000000001 200.64L348.4800000000001 128.04L348.4800000000001 128.04V285.1200000000001L348.4800000000001 285.1200000000001L147.84 473.88C141.24 480.48 137.28 489.72 137.28 498.96V752.4C137.28 770.88 153.12 786.72 171.6 786.72C190.08 786.72 205.92 770.88 205.92 752.4V513.48L382.8 345.8400000000001L558.3599999999999 512.1600000000001V752.4C558.3599999999999 770.88 574.1999999999999 786.72 592.68 786.72C611.16 785.4 627 770.88 627 752.4z" />
    <glyph glyph-name="graph"
      unicode="&#xE011;"
      horiz-adv-x="792" d=" M629.64 406.56C611.16 406.56 592.6800000000001 402.6 576.84 394.6800000000001L458.04 504.2400000000001C467.28 521.4000000000001 472.5600000000001 541.2 472.5600000000001 562.32C472.5600000000001 632.28 417.1200000000001 689.04 345.8400000000001 689.04S219.12 630.96 219.12 562.32C219.12 528 232.32 496.3200000000001 254.76 473.8800000000001L165 315.4800000000001C158.4 316.8 150.48 316.8 143.88 316.8C73.92 316.8 17.16 261.36 17.16 190.0800000000001C17.16 120.12 75.24 63.36 143.88 63.36C213.84 63.36 270.6 118.8000000000001 270.6 190.0800000000001C270.6 225.7200000000001 256.08 257.4 233.64 281.16L322.08 438.24C330 436.92 337.92 435.6 347.16 435.6C368.28 435.6 388.08 440.88 405.2399999999999 450.12L521.4 343.2000000000001C510.84 324.7200000000001 504.24 303.6 504.24 279.8400000000001C504.24 209.8800000000001 562.3199999999999 153.12 630.96 153.12S756.36 208.5600000000001 757.6800000000001 279.8400000000001C756.3599999999999 349.8 699.5999999999999 406.56 629.64 406.56zM143.88 138.6C116.16 138.6 92.4 161.0400000000001 92.4 190.0800000000001S114.84 241.56 143.88 241.56S195.36 219.12 195.36 190.0800000000001S171.6 138.6 143.88 138.6zM345.84 510.84C318.12 510.84 294.36 533.28 294.36 562.3199999999999S316.8 613.8 345.84 613.8S397.32 591.36 397.32 562.3199999999999S373.56 510.84 345.84 510.84zM629.64 227.0400000000001C601.92 227.0400000000001 578.1600000000001 249.4800000000002 578.1600000000001 278.5200000000001C578.1600000000001 306.2400000000001 600.6 330 629.64 330S678.48 307.56 681.12 278.5200000000001C679.8 250.8000000000001 657.3599999999999 227.0400000000001 629.64 227.0400000000001z" />
    <glyph glyph-name="ita"
      unicode="&#xE012;"
      horiz-adv-x="792" d=" M398.64 784.08C184.8 784.08 11.88 609.84 11.88 397.3200000000001C11.88 183.4800000000001 184.8 10.5600000000001 398.64 10.5600000000001C612.4799999999999 10.5600000000001 785.4 184.8000000000001 785.4 397.32C785.4 609.84 611.16 784.08 398.64 784.08zM261.36 687.72C232.32 648.12 208.56 596.64 194.04 538.56H109.56C141.24 603.24 195.36 657.36 261.36 687.72zM76.56 397.3200000000001C76.56 435.6 83.16 472.56 95.04 505.56H186.12C179.52 471.24 176.88 434.28 176.88 397.3200000000001C176.88 359.0400000000001 180.84 323.4000000000001 186.12 289.0800000000001H95.04C83.16 322.08 76.56 359.0400000000001 76.56 397.3200000000001zM109.56 256.0800000000001H194.04C208.56 196.6800000000001 232.32 145.2000000000001 261.36 105.6C195.36 137.28 141.24 190.0800000000001 109.56 256.0800000000001zM382.8 75.2400000000001C364.32 76.5600000000001 347.16 79.2000000000001 328.68 81.84C283.8 113.5200000000001 246.84 176.8800000000001 227.04 254.7600000000001H382.8V75.2400000000001zM382.8 287.76H220.44C213.84 322.08 209.88 357.72 209.88 396S213.84 471.24 220.44 504.24H382.8V287.76zM382.8 538.5600000000001H227.04C246.84 616.44 283.8 678.48 328.68 711.48C345.84 715.44 364.32 718.08 382.8 719.4V538.5600000000001zM687.72 538.5600000000001H603.24C588.72 597.96 564.96 649.44 535.92 687.72C601.92 657.36 656.04 603.24 687.72 538.5600000000001zM414.48 718.08C432.9599999999999 716.76 451.4399999999999 714.12 468.6 710.16C513.4799999999999 678.48 550.44 615.12 570.24 537.24H414.48V718.08zM414.48 505.56H576.84C583.44 471.24 587.4 434.28 587.4 397.3200000000001S583.44 323.4000000000001 576.84 289.0800000000001H414.48V505.56zM468.6 83.16C451.44 79.2000000000001 432.9599999999999 76.56 415.8 76.56V256.0800000000001H571.56C549.12 176.88 513.4799999999999 114.84 468.6 83.16zM534.6 105.6C563.64 145.2000000000001 587.4 196.6800000000001 601.92 256.0800000000001H686.4C654.72 190.0800000000001 601.92 137.28 534.6 105.6zM700.92 287.76H609.84C616.44 322.08 619.08 359.04 619.08 396C619.08 434.28 615.1200000000001 469.92 609.84 504.24H700.92C712.8 469.92 719.4 434.28 719.4 396C720.72 359.0400000000001 714.12 322.08 700.92 287.76z" />
    <glyph glyph-name="location"
      unicode="&#xE013;"
      horiz-adv-x="792" d=" M397.32 786.72C216.48 786.72 68.64 638.88 68.64 458.04C68.64 283.8 344.5199999999999 43.5600000000001 376.2 17.16C382.8 11.88 389.4 9.24 397.32 9.24C405.24 9.24 411.8400000000001 11.88 418.44 17.16C450.12 43.5600000000001 726 285.12 726 458.04C726 638.88 578.16 786.72 397.32 786.72zM397.32 297C308.88 297 237.6 369.6 237.6 458.04C237.6 546.48 310.2 617.76 397.32 617.76C485.76 617.76 557.04 545.16 557.04 458.04C558.3599999999999 369.6 485.7599999999999 297 397.32 297z" />
    <glyph glyph-name="maintenance"
      unicode="&#xE014;"
      horiz-adv-x="792" d=" M629.64 22.4400000000001C608.52 22.4400000000001 584.76 31.6800000000001 570.24 44.8800000000001L535.92 77.8800000000001C448.8 161.0400000000001 361.68 244.2000000000001 275.88 327.36C207.24 314.16 135.96 335.2800000000001 84.48 382.8C18.48 443.5200000000001 -3.96 535.9200000000001 26.4 620.4C30.36 630.96 38.28 637.5600000000001 48.84 640.2C59.4 642.84 69.96 640.2 77.88 632.28L179.52 538.5600000000001L236.2800000000001 599.28L134.6400000000001 693C126.72 700.92 124.08 711.48 125.4 722.04C126.72 732.6 134.64 741.84 143.88 745.8C223.08 781.44 320.76 765.6 385.44 706.2C436.92 657.36 462 588.72 454.08 520.0799999999999C528.0000000000001 452.76 603.24 386.76 677.16 319.4400000000001L757.6800000000001 246.8400000000001C773.5200000000001 233.6400000000001 788.04 203.2800000000001 785.4000000000001 175.5600000000001C776.16 101.6400000000001 716.76 36.9600000000002 642.84 22.4400000000001C638.88 22.4400000000001 633.5999999999999 22.4400000000001 629.64 22.4400000000001L629.64 22.4400000000001zM285.12 394.68C293.04 394.68 300.96 392.04 307.56 385.44C398.64 298.3200000000001 489.72 211.2000000000001 580.8 124.0800000000001L615.12 91.08C617.76 89.76 624.36 85.8000000000001 629.64 85.8000000000001L630.96 85.8000000000001C677.16 95.0400000000001 715.44 135.96 720.72 182.16C720.72 186.12 718.0799999999999 195.36 714.12 198L633.5999999999999 270.6C554.4 341.88 476.52 411.8400000000001 397.32 483.1200000000001C389.4 491.0400000000001 385.44 501.6 386.76 513.48C397.32 567.6 380.16 621.72 340.56 658.6800000000001C308.88 689.0400000000001 265.32 703.5600000000001 221.76 699.6L286.44 638.88C308.88 617.76 310.2000000000001 583.44 289.0800000000001 561L220.44 488.4C200.64 467.28 163.68 465.96 142.56 485.76L77.88 546.48C77.88 502.92 95.04 460.68 128.04 430.32C167.64 393.36 224.4 380.16 275.88 394.68C279.84 394.68 282.48 394.68 285.12 394.68L285.12 394.68z" />
    <glyph glyph-name="notes"
      unicode="&#xE015;"
      horiz-adv-x="612" d=" M512.04 694.86H85.68C70.38 694.86 59.16 682.62 59.16 668.34V133.86C59.16 118.559 71.4 107.3390000000001 85.68 107.3390000000001H355.98C362.0990000000001 107.3390000000001 369.24 110.4000000000001 374.339 114.48L531.419 270.54C535.499 275.64 538.559 281.76 538.559 288.9V668.34C538.56 683.64 526.32 694.86 512.04 694.86zM112.2 642.84H485.52V303.18H355.98C348.839 303.18 342.719 297.06 342.719 289.92V159.3599999999999H112.2V642.84zM368.2200000000001 182.8200000000001V276.6600000000001H462.0600000000001L368.2200000000001 182.8200000000001z M174.42 557.16H327.42C334.56 557.16 340.68 563.28 340.68 570.42C340.68 577.56 334.56 583.68 327.42 583.68H174.42C167.28 583.68 161.16 577.56 161.16 570.42C161.16 563.28 167.28 557.16 174.42 557.16z M174.42 493.92H428.4C435.54 493.92 441.66 500.04 441.66 507.18C441.66 514.3199999999999 435.54 520.44 428.4 520.44H174.42C167.28 520.44 161.16 514.3199999999999 161.16 507.18C161.16 500.04 167.28 493.92 174.42 493.92z M174.42 430.68H428.4C435.54 430.68 441.66 436.8 441.66 443.94S435.54 457.2 428.4 457.2H174.42C167.28 457.2 161.16 451.08 161.16 443.94S167.28 430.68 174.42 430.68z M280.5 393.96H174.42C167.28 393.96 161.16 387.84 161.16 380.7C161.16 373.559 167.28 367.44 174.42 367.44H280.5C287.64 367.44 293.76 373.559 293.76 380.7C293.76 387.84 287.64 393.96 280.5 393.96z" />
    <glyph glyph-name="pretrip"
      unicode="&#xE016;"
      horiz-adv-x="792" d=" M669.24 669.24C595.3199999999999 741.84 498.9599999999999 781.44 396 781.44S196.68 741.84 122.76 669.24C50.16 595.3199999999999 10.56 498.96 10.56 396S50.16 196.6800000000001 122.76 124.0800000000001C195.36 51.48 291.7200000000001 11.88 394.68 11.88S594 51.48 667.92 124.0800000000001C818.4 273.24 818.4 518.76 669.24 669.24zM623.04 170.28C562.3199999999999 109.56 481.8 76.56 396 76.56C310.2000000000001 76.56 229.6800000000001 109.56 170.28 170.28C109.56 229.6800000000001 76.56 310.2000000000001 76.56 396C76.56 481.8 109.56 562.32 170.28 621.72C229.68 682.44 310.2 715.44 396 715.44C481.8 715.44 562.3199999999999 682.44 621.72 621.72C747.12 497.64 747.12 294.36 623.04 170.28z M587.4 204.6C580.8 198 570.24 198 563.64 204.6C557.04 211.2000000000001 557.04 221.76 563.64 228.36C656.04 320.76 656.04 472.56 563.64 564.96C477.84 650.76 340.5600000000001 657.3599999999999 246.8400000000001 583.4399999999999C249.48 572.88 245.52 562.3199999999999 237.6 554.4C151.8000000000001 468.6 151.8000000000001 327.36 237.6 240.24C250.8000000000001 227.04 250.8000000000001 207.24 237.6 194.04C231.0000000000001 187.44 223.08 184.8 213.84 184.8C205.9200000000001 184.8 196.68 187.44 190.08 194.04C77.88 306.24 77.88 488.4 190.08 600.5999999999999C199.32 609.8399999999999 212.52 612.48 223.08 608.52C328.68 694.3199999999999 485.7599999999999 687.7199999999999 584.7599999999999 588.72C693 481.8 693 310.2000000000001 587.4 204.6z M460.6799999999999 172.9200000000001C460.6799999999999 137.28 431.64 108.2400000000001 397.32 108.2400000000001S332.64 137.2800000000001 332.64 172.9200000000001C332.64 188.7600000000001 337.9199999999999 203.28 348.4799999999999 215.1600000000001L246.8399999999999 442.2000000000001C238.9199999999999 458.0400000000001 246.8399999999999 477.84 262.6799999999999 485.76C278.5199999999999 493.6800000000001 298.32 485.76 306.24 469.9200000000001L410.5199999999999 236.2800000000001C438.24 228.36 460.6799999999999 203.28 460.6799999999999 172.9200000000001z" />
    <glyph glyph-name="print"
      unicode="&#xE017;"
      horiz-adv-x="792" d=" M653.4 454.08V751.08C653.4 760.32 645.4799999999999 768.24 636.24 768.24H331.32C330 768.24 328.68 768.24 328.68 768.24C326.04 768.24 322.08 765.6 320.76 764.28L142.56 586.08V586.08C142.56 586.08 141.24 584.76 141.24 584.76C139.92 583.44 138.6 582.12 138.6 580.8C137.28 578.1600000000001 137.28 576.84 137.28 574.2V454.08H6.6V81.84H109.56V147.84H72.6V388.08H718.0799999999999V147.84H681.12V81.84H784.0799999999999V454.08H653.4zM315.48 711.48V590.04H194.04L315.48 711.48zM620.4 454.08H170.28V557.04H331.32C340.56 557.04 347.16 564.96 347.16 572.88V735.24H620.4V454.08z M637.56 23.76H154.44C145.2 23.76 137.28 31.6800000000001 137.28 40.92V204.6C137.28 213.84 145.2 221.76 154.44 221.76H637.56C646.8 221.76 654.7199999999999 213.8399999999999 654.7199999999999 204.6V40.9200000000001C653.4 31.6800000000001 646.8 23.76 637.56 23.76L637.56 23.76zM170.28 56.76H620.4V187.44H170.28V56.76L170.28 56.76z M590.04 337.92C568.92 337.92 551.76 320.7600000000001 551.76 298.3200000000001C551.76 277.2000000000001 568.92 258.7200000000001 590.04 258.7200000000001S629.64 275.88 629.64 298.3200000000001C628.3199999999999 320.76 611.16 337.92 590.04 337.92L590.04 337.92z M495 291.7200000000001H290.4C281.16 291.7200000000001 273.24 299.6400000000001 273.24 308.88C273.24 318.1200000000001 281.16 326.04 290.4 326.04H493.6799999999999C502.92 326.04 510.8399999999999 318.12 510.8399999999999 308.88C510.84 299.6400000000001 504.24 291.7200000000001 495 291.7200000000001L495 291.7200000000001z" />
    <glyph glyph-name="search"
      unicode="&#xE018;"
      horiz-adv-x="792" d=" M348.48 133.3200000000001C170.28 133.3200000000001 25.08 278.5200000000001 25.08 456.72C25.08 634.9200000000001 170.28 780.12 348.48 780.12C528 781.44 673.1999999999999 636.24 673.1999999999999 456.72C673.1999999999999 278.5200000000001 528 133.3200000000001 348.48 133.3200000000001L348.48 133.3200000000001zM348.48 715.44C205.92 715.44 89.76 599.28 89.76 456.72C89.76 314.16 205.92 198 348.48 198C491.04 198 607.1999999999999 314.16 607.1999999999999 456.72C607.1999999999999 599.28 491.04 715.44 348.48 715.44L348.48 715.44z M166.32 456.72H133.32C133.32 575.52 229.68 671.88 348.48 671.88V638.88C248.16 638.88 166.32 557.04 166.32 456.72L166.32 456.72z M735.24 26.4000000000001C727.3199999999999 26.4000000000001 718.08 29.0400000000001 712.8 35.6400000000001L530.64 216.48C517.44 229.6800000000001 517.44 249.48 530.64 262.6800000000001C543.84 275.88 563.64 275.88 576.84 262.6800000000001L757.6800000000001 81.84C770.88 68.6400000000001 770.88 48.84 757.6800000000001 35.6400000000001C751.0799999999999 29.0400000000001 743.16 26.4000000000001 735.24 26.4000000000001L735.24 26.4000000000001z" />
    <glyph glyph-name="snapshot"
      unicode="&#xE019;"
      horiz-adv-x="792" d=" M389.4 191.4C287.76 191.4 204.6 274.56 204.6 376.2000000000001S287.76 561 389.4 561C491.04 561 574.1999999999999 477.84 574.1999999999999 376.2000000000001S491.04 191.4 389.4 191.4L389.4 191.4zM389.4 526.6800000000001C306.24 526.6800000000001 238.92 459.36 238.92 376.2000000000001S306.24 225.7200000000001 389.4 225.7200000000001C472.5599999999999 225.7200000000001 539.88 293.0400000000001 539.88 376.2000000000001S472.5599999999999 526.6800000000001 389.4 526.6800000000001L389.4 526.6800000000001z M708.84 56.76H83.16C38.28 56.76 2.64 92.4000000000001 2.64 137.28V546.48C2.64 591.36 38.28 627 83.16 627H205.92L262.68 699.6C269.28 707.52 278.52 712.8 289.08 712.8H500.28C510.8399999999999 712.8 520.0799999999999 707.52 526.68 699.6L583.4399999999999 627H708.8399999999999C753.7199999999999 627 789.3599999999999 591.36 789.3599999999999 546.48V137.28C789.3599999999999 93.72 752.4 56.76 708.84 56.76L708.84 56.76zM83.16 559.6800000000001C76.56 559.6800000000001 69.96 554.4 69.96 546.48V137.28C69.96 130.6800000000001 75.24 124.0800000000001 83.16 124.0800000000001H708.8399999999999C715.4399999999999 124.0800000000001 722.0399999999998 129.36 722.0399999999998 137.28V546.48C722.0399999999998 553.0799999999999 716.7599999999999 559.6800000000001 708.8399999999999 559.6800000000001H566.28C555.72 559.6800000000001 546.4799999999999 564.96 539.88 572.88L483.12 645.48H304.92L248.16 572.88C241.56 564.96 232.32 559.6800000000001 221.76 559.6800000000001H83.16L83.16 559.6800000000001z" />
    <glyph glyph-name="state-machine"
      unicode="&#xE01A;"
      horiz-adv-x="792" d=" M396 304.9200000000001C390.72 304.9200000000001 385.44 306.2400000000001 381.48 308.88L26.4 506.88C17.16 512.16 10.56 522.72 10.56 533.28S17.16 554.4 26.4 559.6800000000001L378.84 757.68C388.08 762.96 399.96 762.96 409.2 757.68L764.28 559.6800000000001C773.52 554.4 780.12 543.84 780.12 533.28S773.52 512.16 764.28 506.88L411.84 308.88C406.56 306.2400000000001 401.28 304.9200000000001 396 304.9200000000001L396 304.9200000000001zM104.28 533.28L396 369.6L686.4 531.96L394.68 695.64L104.28 533.28L104.28 533.28z M396 167.6400000000001C390.72 167.6400000000001 385.44 168.96 381.48 171.6L27.72 369.6C13.2 377.5200000000001 7.92 396 15.84 410.5200000000001C23.76 425.0400000000001 42.24 430.3200000000001 56.76 422.4000000000001L396 232.3200000000001L733.92 422.4000000000001C748.4399999999999 430.3200000000001 766.92 425.04 774.84 410.5200000000001C782.76 396 777.48 377.5200000000001 762.96 369.6L411.84 171.6C406.56 168.96 401.28 167.6400000000001 396 167.6400000000001L396 167.6400000000001z M396 30.36C390.72 30.36 385.44 31.6800000000001 381.48 34.3199999999999L26.4 232.32C11.88 240.24 6.6 258.7199999999999 14.52 273.24C22.44 287.76 40.92 293.04 55.44 285.12L396 96.36L732.5999999999999 285.12C747.12 293.04 765.5999999999999 287.76 773.52 273.24C781.4399999999999 258.7199999999999 776.16 240.24 761.64 232.32L411.84 34.3200000000001C406.56 31.6800000000001 401.28 30.36 396 30.36L396 30.36z" />
    <glyph glyph-name="status"
      unicode="&#xE01B;"
      horiz-adv-x="792" d=" M752.4 221.76C723.3599999999999 266.64 693 324.72 661.3199999999999 397.32C694.3199999999999 489.72 726 584.76 756.36 687.72C760.3199999999999 699.6 755.04 712.8 744.4799999999999 719.4S720.72 724.6800000000001 711.4799999999999 715.44C674.52 679.8 636.2399999999999 663.96 592.68 663.96C535.92 663.96 477.84 691.6800000000001 415.8 720.72C351.12 751.08 283.8 782.76 215.16 782.76C176.88 782.76 142.56 773.52 109.56 755.04C109.56 772.2 95.04 786.72 76.56 786.72C58.08 786.72 43.56 772.2 43.56 753.72V44.88C43.56 26.4000000000001 58.08 11.88 76.56 11.88S109.56 26.4000000000001 109.56 44.88V198C142.56 225.7200000000001 176.88 237.6 215.16 237.6C271.92 237.6 330 209.88 392.04 180.84C456.72 150.4800000000001 524.04 118.8000000000001 592.6800000000001 118.8000000000001C650.76 118.8000000000001 702.24 141.2400000000001 749.76 186.12C759 195.36 760.3199999999999 211.2000000000001 752.4 221.76zM591.3599999999999 175.56C534.6 175.56 476.5199999999999 203.28 414.48 232.32C349.8 262.68 282.48 294.36 213.84 294.36C175.56 294.36 141.24 285.12 108.24 266.64V689.04C141.24 715.4399999999999 175.56 728.64 213.84 728.64C270.6 728.64 328.68 700.92 390.72 671.8799999999999C455.4 641.52 522.72 609.8399999999999 591.3599999999999 609.8399999999999C623.04 609.8399999999999 652.0799999999999 616.4399999999999 679.8 629.64C656.04 551.76 630.9599999999999 477.84 604.56 406.56C601.9199999999998 399.96 601.9199999999998 392.04 604.56 385.44C634.9199999999998 315.48 663.9599999999999 258.7199999999999 691.68 212.52C661.3199999999999 187.4400000000001 628.3199999999999 175.56 591.3599999999999 175.56z" />
    <glyph glyph-name="temp-profile"
      unicode="&#xE01C;"
      horiz-adv-x="792" d=" M715.44 22.4400000000001H52.8C35.64 22.4400000000001 22.44 35.6400000000001 22.44 52.8000000000001V715.44C22.44 732.6 35.64 745.8 52.8 745.8S83.16 732.6 83.16 715.44V81.84H716.7599999999999C733.9199999999998 81.84 747.1199999999999 68.6400000000001 747.1199999999999 51.4800000000001C745.8 35.6400000000001 732.5999999999999 22.4400000000001 715.44 22.4400000000001L715.44 22.4400000000001z M624.3599999999999 425.04C609.8399999999999 425.04 595.3199999999999 422.4000000000001 582.1199999999999 415.8L485.7599999999999 504.24C492.36 517.44 497.6399999999999 533.28 497.6399999999999 550.44C497.6399999999999 607.2 452.7599999999999 652.0799999999999 396 652.0799999999999S294.36 605.88 294.36 550.44C294.36 522.72 304.92 497.64 323.3999999999999 479.16L250.8 352.4400000000001C245.52 353.7600000000001 238.92 353.7600000000001 233.64 353.7600000000001C176.88 353.7600000000001 132 308.8800000000001 132 252.12C132 195.3600000000001 178.2 150.48 233.64 150.48C290.4 150.48 335.28 195.36 335.28 252.12C335.28 281.1600000000001 323.4 306.2400000000001 304.92 324.7200000000001L376.2 450.1200000000001C382.8 448.8 389.4 448.8 396 448.8C413.16 448.8 429 452.76 442.2 460.68L535.92 374.88C526.68 360.36 522.72 341.88 522.72 324.7200000000001C522.72 267.9600000000001 568.92 223.0800000000001 624.36 223.0800000000001S724.6800000000001 267.9600000000001 726 324.7200000000001C726 380.1600000000001 681.12 425.04 624.3599999999999 425.04zM233.64 209.88C211.2 209.88 192.72 228.36 192.72 250.8000000000001S211.2 291.7200000000001 233.64 291.7200000000001S274.56 273.24 274.56 250.8000000000001S256.08 209.88 233.64 209.88zM396 509.52C373.56 509.52 355.08 528 355.08 550.44S373.56 591.36 396 591.36S436.92 572.8800000000001 436.92 550.44S418.44 509.52 396 509.52zM624.3599999999999 281.16C601.9199999999998 281.16 583.4399999999999 299.64 583.4399999999999 322.08C583.4399999999999 344.5200000000001 601.9199999999998 363 624.3599999999999 363S663.9599999999999 344.5200000000001 665.28 322.08C665.28 299.6400000000001 646.8 281.16 624.3599999999999 281.16z" />
    <glyph glyph-name="temperature"
      unicode="&#xE01D;"
      horiz-adv-x="792" d=" M386.76 724.6800000000001C430.32 724.6800000000001 464.64 690.36 464.64 646.8V287.76C492.36 265.32 509.52 231 509.52 192.7199999999999C509.52 125.4 454.08 69.96 386.76 69.96C319.44 69.96 264 124.0800000000001 264 192.7199999999999C264 230.9999999999999 281.16 265.32 308.88 287.76V646.8C310.2 690.36 344.52 724.6800000000001 386.76 724.6800000000001M386.76 789.36C308.88 789.36 245.52 726 245.52 648.12V315.4800000000001C216.48 282.4800000000001 200.64 238.9200000000002 200.64 194.0400000000001C200.64 91.0800000000002 283.8 7.9200000000001 386.76 7.9200000000001C489.72 7.9200000000001 572.88 91.08 572.88 194.0400000000001C572.88 238.9200000000001 557.04 281.1600000000001 528 315.4800000000001V646.8C529.3199999999999 724.6800000000001 465.9599999999999 789.36 386.76 789.36L386.76 789.36z M411.84 633.6H364.32V262.6800000000001L344.5199999999999 246.8399999999999C328.68 233.64 319.44 213.8399999999999 319.44 194.04C319.44 155.76 349.8 125.4 388.08 125.4C426.36 125.4 456.72 155.7599999999999 456.72 194.04C456.72 215.16 447.48 233.64 431.64 246.8399999999999L411.8400000000001 262.6800000000001V633.6L411.84 633.6zM415.8 172.9200000000001C403.92 172.9200000000001 394.68 183.48 394.68 196.6800000000001C394.68 209.88 403.92 220.44 415.8 220.44C427.68 220.44 436.92 209.88 436.92 196.6800000000001C436.92 183.48 426.36 172.9200000000001 415.8 172.9200000000001L415.8 172.9200000000001z" />
    <glyph glyph-name="time"
      unicode="&#xE01E;"
      horiz-adv-x="792" d=" M386.76 22.4400000000001C184.8 22.4400000000001 19.8 187.4400000000001 19.8 389.4000000000001C19.8 591.36 184.8 756.36 386.76 756.36C588.72 756.36 753.72 591.36 753.72 389.4000000000001C753.72 187.4400000000001 590.04 22.4400000000001 386.76 22.4400000000001L386.76 22.4400000000001zM386.76 694.32C219.12 694.32 81.84 557.04 81.84 389.4000000000001S217.8 84.48 386.76 84.48S691.6800000000001 220.4400000000001 691.6800000000001 389.4000000000001S554.4 694.32 386.76 694.32L386.76 694.32z M386.76 357.7200000000001C369.6 357.7200000000001 355.08 372.2400000000001 355.08 389.4000000000001V616.44C355.08 633.6 369.6 648.12 386.76 648.12C403.92 648.12 418.44 633.6 418.44 616.44V389.4000000000001C418.44 372.24 403.92 357.7200000000001 386.76 357.7200000000001L386.76 357.7200000000001z M291.7200000000001 262.6800000000001C283.8 262.6800000000001 275.88 265.3200000000001 269.2800000000001 271.9200000000001C257.4000000000001 283.8 257.4000000000001 303.6 269.2800000000001 316.8L360.36 407.88C372.24 419.76 392.04 419.76 405.24 407.88C417.12 396 417.12 376.2000000000001 405.24 363L314.1600000000001 271.9200000000001C307.56 265.3200000000001 299.64 262.6800000000001 291.7200000000001 262.6800000000001L291.7200000000001 262.6800000000001z" />
    <glyph glyph-name="tooltip"
      unicode="&#xE01F;"
      horiz-adv-x="792" d=" M271.92 477.84C271.92 493.68 277.2 509.52 286.44 525.36C297.0000000000001 541.2 311.52 554.4 330.0000000000001 564.96C349.8 575.52 372.24 580.8 397.32 580.8C421.08 580.8 442.2 576.84 460.6799999999999 567.6C479.1599999999999 558.36 492.36 546.48 502.92 531.96C513.4799999999999 517.44 517.44 500.28 517.44 483.1200000000001C517.44 468.6 514.8 456.72 509.52 446.1600000000001C504.24 435.6 497.64 426.36 489.72 418.44C481.8 410.52 467.28 397.32 447.48 380.1600000000001C442.2 374.8800000000001 436.92 370.92 434.28 366.96C430.32 363 429 359.04 426.36 356.4000000000001C425.0399999999999 353.76 423.7199999999999 349.8 422.3999999999999 347.16C421.08 344.5199999999999 419.76 337.92 418.44 330C415.8 312.8400000000001 405.2399999999999 304.9200000000001 389.3999999999999 304.9200000000001C381.4799999999999 304.9200000000001 373.56 307.5600000000001 368.2799999999999 312.8400000000001C363 318.1200000000001 359.0399999999999 327.3600000000001 359.0399999999999 337.92C359.0399999999999 351.1200000000001 361.6799999999999 363 365.64 373.5600000000001C369.5999999999999 384.1200000000001 376.2 392.04 382.8 399.9600000000001C389.3999999999999 407.8800000000001 399.9599999999999 417.1200000000001 411.8399999999999 427.6800000000001C422.3999999999999 436.92 430.3199999999999 443.5200000000001 434.28 448.8000000000001C439.56 454.08 443.52 458.0400000000001 446.1599999999999 464.64C448.8 469.92 451.4399999999999 476.52 451.4399999999999 483.1200000000001C451.4399999999999 496.3200000000001 446.1599999999999 506.8800000000001 436.9199999999999 516.1200000000001C427.6799999999999 525.36 414.4799999999999 529.32 398.64 529.32C380.16 529.32 366.9599999999999 525.36 359.0399999999999 516.1200000000001C351.1199999999999 506.8800000000001 343.2 493.6800000000001 337.9199999999999 475.2C332.64 456.72 322.08 447.48 306.24 447.48C297 447.48 289.08 450.12 282.4799999999999 456.72C274.56 463.3200000000001 271.92 469.92 271.92 477.84zM392.04 207.2400000000001C381.48 207.2400000000001 373.56 209.8800000000001 365.64 216.4800000000001C357.72 223.0800000000002 353.76 232.3200000000002 353.76 244.2000000000002C353.76 254.7600000000001 357.7200000000001 262.6800000000001 364.32 270.6000000000002C370.92 277.2000000000002 380.16 281.1600000000001 390.72 281.1600000000001C401.2800000000001 281.1600000000001 409.2 277.2000000000002 417.12 270.6000000000002C423.72 264.0000000000001 427.68 254.7600000000001 427.68 244.2000000000002C427.68 232.3200000000002 423.72 223.0800000000002 417.12 216.4800000000001C410.52 211.2000000000001 401.28 207.2400000000001 392.04 207.2400000000001z M396 5.28C291.7200000000001 5.28 194.04 46.2 120.12 118.8000000000001C46.2 192.72 6.6 290.4000000000001 6.6 394.68S47.52 597.96 120.12 670.5600000000001C194.04 744.48 291.7200000000001 784.08 396 784.08C500.28 784.08 597.9599999999999 743.16 671.88 670.5600000000001C823.68 518.76 823.68 271.9200000000001 671.88 118.8000000000001C597.9599999999999 46.2 500.28 5.28 396 5.28L396 5.28zM396 719.4C310.2 719.4 228.36 686.4 167.64 624.36C105.6 563.64 72.6 481.8 72.6 396S105.6 227.0400000000001 167.64 166.3200000000001C228.36 105.6 310.2 71.28 396 71.28C481.8 71.28 563.64 105.6 624.3599999999999 166.3200000000001C751.0799999999999 293.0400000000001 751.0799999999999 497.64 624.3599999999999 624.3600000000001C563.64 685.08 483.12 719.4 396 719.4L396 719.4z" />
    <glyph glyph-name="wireless"
      unicode="&#xE020;"
      horiz-adv-x="792" d=" M748.4399999999999 7.9200000000001C728.64 7.9200000000001 714.12 23.7600000000001 714.12 42.2400000000001C714.12 413.1600000000001 411.8400000000001 715.44 40.92 715.44C21.12 715.44 6.6 731.2800000000001 6.6 749.76S21.12 785.4 39.6 785.4C448.8 785.4 782.7599999999999 452.76 782.7599999999999 42.2400000000001C782.7599999999999 22.4400000000001 766.92 7.9200000000001 748.4399999999999 7.9200000000001L748.4399999999999 7.9200000000001z M539.88 7.9200000000001C520.0799999999999 7.9200000000001 505.5599999999999 23.7600000000001 505.5599999999999 42.2400000000001C505.5599999999999 298.3200000000001 297 506.8800000000001 40.9199999999999 506.8800000000001C21.1199999999999 506.8800000000001 6.5999999999999 522.72 6.5999999999999 541.2C6.5999999999999 561.0000000000001 22.4399999999999 575.5200000000001 40.9199999999999 575.5200000000001C335.2799999999999 575.5200000000001 575.5199999999999 335.2800000000001 575.5199999999999 40.9200000000002C574.1999999999999 22.4400000000001 559.68 7.9200000000001 539.88 7.9200000000001L539.88 7.9200000000001z M320.76 7.9200000000001C300.96 7.9200000000001 286.44 23.7600000000001 286.44 42.2400000000001C286.44 178.2000000000001 175.56 287.7600000000001 39.6 287.7600000000001C19.8 287.7600000000001 5.28 303.6000000000002 5.28 322.0800000000001S21.12 356.4000000000001 39.6 356.4000000000001C213.84 356.4000000000001 355.08 215.1600000000002 355.08 40.9200000000002C355.08 22.4400000000001 340.56 7.9200000000001 320.76 7.9200000000001L320.76 7.9200000000001z" />
    <glyph glyph-name="x"
      unicode="&#xE021;"
      horiz-adv-x="792" d=" M217.8 132C200.64 132 182.16 138.6 168.96 151.8000000000001C142.56 178.2000000000001 142.56 221.76 168.96 248.16L550.44 629.64C576.84 656.04 620.4 656.04 646.8 629.64C673.1999999999999 603.24 673.1999999999999 559.68 646.8 533.28L266.64 153.12C253.44 138.6 236.28 132 217.8 132L217.8 132z M600.6 132C583.44 132 564.9599999999999 138.6 551.7599999999999 151.8000000000001L170.28 534.6C143.88 561 143.88 604.5600000000001 170.28 630.96C196.68 657.36 240.24 657.36 266.64 630.96L648.1199999999999 249.4800000000002C674.5199999999999 223.0800000000002 674.5199999999999 179.5200000000001 648.1199999999999 153.1200000000001C634.92 138.6 617.7599999999999 132 600.6 132L600.6 132z" />
    <glyph glyph-name="excel-all"
      unicode="&#xE022;"
      horiz-adv-x="792" d=" M576.84 683.76C590.04 683.76 600.6 673.2 600.6 660V171.6C600.6 145.2000000000001 578.16 122.76 551.7599999999999 122.76H180.84C167.64 122.76 157.08 133.3199999999999 157.08 146.52C157.08 159.7199999999999 167.64 170.28 180.84 170.28H553.0799999999999V660C553.0799999999999 673.2 563.64 683.76 576.84 683.76L576.84 683.76z M675.84 582.12C689.04 582.12 699.5999999999999 571.5600000000001 699.5999999999999 558.36V69.96C699.5999999999999 43.5600000000001 677.16 21.12 650.7599999999999 21.12H279.84C266.64 21.12 256.08 31.68 256.08 44.8799999999999C256.08 58.0799999999999 266.64 68.6399999999999 279.84 68.6399999999999H652.0799999999999V557.0399999999998C652.0799999999999 570.24 662.64 582.12 675.84 582.12L675.84 582.12z M341.88 224.4C335.28 224.4 330 229.6800000000001 330 236.28V382.8C330 389.4000000000001 335.28 394.68 341.88 394.68H487.0799999999999C493.6799999999999 394.68 498.9599999999999 389.4000000000001 498.9599999999999 382.8C498.9599999999999 376.2000000000001 493.6799999999999 370.92 487.0799999999999 370.92H353.76V237.6C353.76 229.6800000000001 348.48 224.4 341.88 224.4L341.88 224.4z M341.88 212.5200000000001H91.08C77.88 212.5200000000001 67.32 223.0800000000001 67.32 236.28V382.8C67.32 396 77.88 406.56 91.08 406.56S114.84 396 114.84 382.8V261.36H331.32L462 392.04V710.16H91.08C77.88 710.16 67.32 720.72 67.32 733.92C67.32 747.12 77.88 757.68 91.08 757.68H487.0799999999999C500.28 757.68 510.8399999999999 747.12 510.8399999999999 733.92V382.8C510.8399999999999 376.2000000000001 508.1999999999999 369.6 504.2399999999999 365.6400000000001L359.0399999999999 220.4400000000001C353.76 215.16 348.48 212.5200000000001 341.88 212.5200000000001L341.88 212.5200000000001z M117.48 562.32L87.12 670.5600000000001H118.8L137.28 600.6L155.76 670.5600000000001H186.12L154.44 562.32L188.76 443.5200000000001H154.44L135.96 518.76L117.48 443.5200000000001H84.48L117.48 562.32z M209.88 670.5600000000001H241.56V473.88H286.44V444.8400000000001H209.88V670.5600000000001z M304.92 497.64C304.92 501.6 304.92 504.24 304.92 509.52L336.6 510.84V501.6C336.6 477.84 340.56 471.24 352.44 471.24C361.68 471.24 366.96 479.16 366.96 493.68C366.96 508.2 361.68 517.44 347.16 538.56L331.32 562.3199999999999C311.52 591.36 304.92 607.2 304.92 627C304.92 657.3599999999999 323.4 675.84 351.12 675.84C372.24 675.84 388.08 662.64 392.04 642.84C393.36 634.9200000000001 394.68 632.28 394.68 615.12L364.32 612.48C364.32 624.36 364.32 628.3199999999999 363 632.28C361.68 641.52 356.4 646.8 349.8 646.8C341.88 646.8 336.6 638.88 336.6 625.6800000000001C336.6 611.1600000000001 337.92 608.52 359.04 576.84L374.88 554.4C389.4 533.28 397.32 509.52 397.32 491.04C397.32 460.68 380.16 443.52 351.12 443.52C333.9599999999999 443.52 322.08 448.8 312.84 460.68C307.56 468.6 304.92 477.84 304.92 497.64z" />
  </font>
</defs>
</svg>
